<?xml version="1.0" standalone="no"?>
<!DOCTYPE svg PUBLIC "-//W3C//DTD SVG 20010904//EN"
 "http://www.w3.org/TR/2001/REC-SVG-20010904/DTD/svg10.dtd">
<svg version="1.0" xmlns="http://www.w3.org/2000/svg"
 width="20.000000pt" height="20.000000pt" viewBox="0 0 512.000000 512.000000"
 preserveAspectRatio="xMidYMid meet">
<metadata>
Created by potrace 1.16, written by Peter Selinger 2001-2019
</metadata>
<g transform="translate(0.000000,512.000000) scale(0.100000,-0.100000)"
fill="#000000" stroke="none">
<path d="M2425 5100 c-27 -11 -101 -60 -164 -109 -156 -123 -168 -125 -343
-75 -175 50 -254 52 -351 6 -90 -42 -141 -97 -216 -235 -88 -161 -114 -178
-306 -201 -148 -17 -201 -33 -260 -78 -98 -76 -134 -157 -155 -350 -11 -102
-17 -125 -44 -169 -28 -47 -44 -60 -161 -126 -71 -40 -140 -83 -152 -95 -70
-65 -120 -200 -110 -293 3 -27 22 -106 42 -175 50 -170 46 -185 -75 -340 -108
-138 -130 -189 -130 -300 0 -107 24 -166 108 -271 97 -120 109 -140 122 -191
11 -43 9 -57 -26 -180 -50 -175 -52 -254 -7 -351 42 -89 89 -132 234 -214 111
-62 127 -75 155 -121 27 -45 33 -68 44 -170 21 -193 57 -274 155 -350 59 -45
112 -61 255 -78 69 -8 137 -19 152 -24 57 -19 95 -60 153 -165 32 -58 70 -123
86 -145 61 -84 208 -149 311 -137 26 3 106 22 178 42 173 49 185 46 341 -76
137 -107 188 -129 299 -129 106 0 166 24 271 108 122 98 141 110 191 122 42
11 58 9 178 -25 72 -20 152 -39 178 -42 103 -12 250 53 311 137 16 22 54 87
86 145 56 103 93 143 149 165 14 5 76 15 138 21 189 19 271 56 347 156 43 56
66 133 80 273 19 181 34 202 211 299 52 29 109 63 128 77 79 61 140 207 129
306 -3 26 -22 106 -42 178 -51 181 -49 186 97 369 84 105 108 165 108 271 0
111 -22 162 -129 299 -123 157 -125 167 -75 343 50 175 52 254 6 351 -41 89
-96 139 -235 216 -164 90 -177 111 -202 316 -7 66 -21 140 -30 164 -31 87
-118 175 -206 207 -24 8 -100 22 -169 30 -197 23 -222 39 -305 189 -32 58 -70
123 -86 145 -61 84 -208 149 -311 137 -26 -3 -106 -22 -178 -42 -173 -49 -185
-46 -341 76 -66 52 -136 97 -167 109 -71 27 -197 27 -267 0z m220 -145 c17 -7
73 -47 125 -89 108 -87 153 -111 230 -126 68 -13 101 -9 268 37 124 34 136 36
180 24 74 -19 110 -56 187 -189 120 -208 171 -243 399 -272 245 -31 275 -61
306 -306 29 -227 70 -287 275 -401 114 -63 142 -86 168 -138 32 -64 31 -96 -9
-232 -27 -92 -37 -147 -38 -198 0 -118 15 -149 173 -350 86 -109 86 -200 0
-308 -152 -192 -171 -231 -172 -347 0 -58 8 -104 38 -204 35 -121 37 -133 26
-181 -17 -76 -56 -116 -184 -187 -208 -115 -248 -174 -277 -402 -30 -242 -69
-282 -300 -306 -229 -24 -290 -65 -408 -277 -71 -128 -111 -167 -187 -184 -48
-11 -61 -9 -181 26 -99 29 -147 38 -204 38 -116 -1 -155 -20 -347 -172 -108
-86 -199 -86 -308 0 -202 158 -233 173 -350 172 -50 0 -108 -11 -199 -38 -120
-35 -133 -37 -181 -26 -76 17 -116 56 -187 184 -115 207 -174 248 -402 277
-245 31 -275 61 -306 306 -29 227 -70 287 -275 401 -114 63 -142 86 -168 138
-32 64 -31 96 8 232 29 98 38 146 38 203 -1 116 -20 155 -172 347 -86 108 -86
199 0 308 158 202 173 233 172 350 0 50 -11 108 -38 199 -35 120 -37 133 -26
181 17 76 56 116 184 187 207 115 248 174 277 402 31 245 61 275 306 306 225
29 295 76 399 271 60 111 86 144 134 169 70 35 99 35 238 -5 147 -43 238 -49
318 -22 46 16 83 41 230 156 84 66 157 80 240 46z"/>
<path d="M2301 4454 c-429 -58 -832 -265 -1129 -579 -786 -830 -670 -2166 246
-2848 772 -575 1861 -483 2524 212 790 826 678 2166 -237 2851 -400 299 -909
431 -1404 364z m562 -158 c355 -66 662 -225 921 -476 261 -254 426 -554 503
-919 24 -113 27 -148 27 -331 1 -231 -12 -326 -71 -520 -58 -194 -189 -442
-311 -590 -272 -329 -618 -539 -1031 -627 -114 -25 -146 -27 -341 -27 -195 0
-227 2 -341 27 -363 77 -663 241 -915 499 -345 353 -519 802 -501 1293 16 440
184 836 492 1154 292 302 656 482 1085 535 77 9 398 -3 483 -18z"/>
<path d="M2918 2933 l-618 -618 -358 358 c-335 335 -359 357 -392 357 -33 0
-49 -14 -199 -165 -158 -159 -163 -165 -157 -197 5 -27 107 -134 539 -565 500
-500 535 -533 567 -533 33 0 81 46 833 798 696 696 797 801 797 827 0 25 -26
55 -163 192 -147 148 -166 163 -197 163 -32 0 -74 -40 -652 -617z m742 342
l85 -85 -720 -720 -720 -720 -465 465 -465 465 88 87 87 88 358 -357 c196
-196 367 -359 379 -363 12 -3 34 0 50 9 15 8 298 285 628 615 330 331 602 601
605 601 3 0 44 -38 90 -85z"/>
</g>
</svg>
