<?xml version="1.0" standalone="no"?>
<!DOCTYPE svg PUBLIC "-//W3C//DTD SVG 20010904//EN"
 "http://www.w3.org/TR/2001/REC-SVG-20010904/DTD/svg10.dtd">
<svg version="1.0" xmlns="http://www.w3.org/2000/svg"
 width="18.000000pt" height="15.000000pt" viewBox="0 0 512.000000 512.000000"
 preserveAspectRatio="xMidYMid meet">
<metadata>
Created by potrace 1.16, written by Peter Selinger 2001-2019
</metadata>
<g transform="translate(0.000000,512.000000) scale(0.100000,-0.100000)"
fill="#2692c7" stroke="none">
<path d="M1604 5101 c-50 -23 -107 -88 -122 -140 -9 -28 -12 -417 -12 -1490
l0 -1451 -142 0 c-117 0 -150 -4 -183 -19 -178 -82 -186 -339 -13 -425 49 -24
61 -26 195 -26 l143 0 0 -676 c0 -490 3 -688 12 -716 6 -22 29 -59 50 -83 50
-57 107 -79 192 -73 88 5 150 44 188 117 l28 53 0 689 0 689 455 0 c360 0 462
3 488 13 123 52 180 201 123 322 -28 60 -56 87 -116 114 -43 20 -64 21 -497
21 l-453 0 0 230 0 230 481 0 c489 0 553 4 701 41 461 115 826 480 952 949 56
213 51 503 -15 715 -139 450 -485 778 -954 903 l-100 26 -680 3 c-646 3 -682
2 -721 -16z m1331 -466 c217 -38 408 -158 543 -340 94 -127 150 -284 159 -445
23 -404 -240 -761 -642 -872 -76 -21 -103 -22 -567 -26 l-488 -4 0 851 0 851
454 0 c361 0 471 -3 541 -15z"/>
</g>
</svg>
