<?xml version="1.0" standalone="no"?>
<!DOCTYPE svg PUBLIC "-//W3C//DTD SVG 20010904//EN"
 "http://www.w3.org/TR/2001/REC-SVG-20010904/DTD/svg10.dtd">
<svg version="1.0" xmlns="http://www.w3.org/2000/svg"
 width="20.000000pt" height="20.000000pt" viewBox="0 0 512.000000 512.000000"
 preserveAspectRatio="xMidYMid meet">
<metadata>
Created by potrace 1.16, written by Peter Selinger 2001-2019
</metadata>
<g transform="translate(0.000000,512.000000) scale(0.100000,-0.100000)"
fill="#000000" stroke="none">
<path d="M2320 4913 c-536 -57 -1017 -288 -1401 -672 -288 -288 -484 -617
-593 -998 -35 -120 -76 -338 -76 -399 0 -19 -3 -34 -7 -34 -3 0 -32 25 -64 55
-50 48 -63 55 -98 55 -55 0 -81 -26 -81 -82 0 -41 4 -47 138 -180 136 -136
139 -138 182 -138 43 0 46 2 182 138 134 133 138 139 138 180 0 56 -26 82 -80
82 -35 0 -48 -7 -90 -46 -58 -54 -58 -54 -35 81 76 442 285 844 606 1164 320
321 710 524 1164 607 123 22 457 30 594 14 590 -69 1130 -377 1481 -846 152
-203 280 -458 351 -702 25 -87 48 -112 100 -112 48 0 79 30 79 78 0 68 -89
320 -171 485 -164 328 -434 641 -734 853 -316 224 -660 357 -1054 409 -105 14
-432 19 -531 8z"/>
<path d="M1327 3318 c-21 -8 -56 -57 -160 -231 l-132 -221 -5 -930 -5 -930
-70 79 c-83 95 -170 210 -225 301 -92 149 -192 376 -241 542 -25 87 -48 112
-100 112 -48 0 -79 -30 -79 -78 0 -68 89 -320 171 -485 164 -328 434 -641 734
-853 324 -230 691 -368 1096 -414 158 -19 491 -8 649 20 481 85 891 300 1241
649 236 236 392 469 514 768 82 202 140 445 161 671 l7 73 58 -56 c50 -48 63
-55 98 -55 55 0 81 26 81 82 0 41 -4 47 -138 180 -136 136 -139 138 -182 138
-43 0 -46 -2 -182 -138 -134 -133 -138 -139 -138 -180 0 -56 26 -82 81 -82 35
0 48 7 96 53 l55 52 -6 -65 c-51 -475 -242 -905 -553 -1245 l-63 -68 -2 930
-3 929 -132 221 c-114 189 -137 223 -164 232 -43 15 -2421 14 -2462 -1z m872
-250 c-10 -51 -21 -103 -24 -115 l-5 -23 -445 0 c-245 0 -445 3 -445 6 0 3 30
55 66 115 l65 109 403 0 403 0 -18 -92z m531 88 c0 -2 9 -48 20 -101 11 -53
20 -103 20 -111 0 -12 -37 -14 -210 -14 -173 0 -210 2 -210 14 0 8 9 58 20
111 11 53 20 99 20 101 0 2 77 4 170 4 94 0 170 -2 170 -4z m1044 -105 c36
-60 66 -112 66 -115 0 -3 -200 -6 -445 -6 l-445 0 -5 23 c-3 12 -14 64 -24
115 l-18 92 403 0 403 0 65 -109z m-1624 -483 c0 -106 5 -210 10 -230 20 -70
52 -73 255 -22 l145 36 145 -36 c170 -42 206 -45 235 -14 19 21 20 34 20 240
l0 218 480 0 480 0 0 -954 0 -954 -87 -65 c-121 -89 -180 -125 -313 -192 -195
-98 -383 -160 -605 -201 -122 -22 -456 -30 -594 -14 -380 43 -763 197 -1066
428 l-50 38 -3 957 -2 957 475 0 475 0 0 -192z m650 46 c0 -134 -1 -145 -17
-140 -81 24 -189 46 -223 46 -34 0 -142 -22 -222 -46 -17 -5 -18 6 -18 140 l0
146 240 0 240 0 0 -146z"/>
<path d="M1780 1780 c-13 -13 -20 -33 -20 -60 0 -27 7 -47 20 -60 20 -20 33
-20 780 -20 747 0 760 0 780 20 13 13 20 33 20 60 0 27 -7 47 -20 60 -20 20
-33 20 -780 20 -747 0 -760 0 -780 -20z"/>
<path d="M1804 1476 c-53 -23 -63 -107 -17 -142 27 -20 1519 -20 1546 0 49 37
34 124 -23 145 -52 18 -1465 15 -1506 -3z"/>
<path d="M2204 1156 c-17 -8 -34 -21 -38 -31 -13 -34 -6 -85 14 -105 19 -19
33 -20 380 -20 347 0 361 1 380 20 22 22 27 78 10 110 -19 36 -63 40 -394 40
-247 -1 -328 -4 -352 -14z"/>
</g>
</svg>
